<svg width="572" height="572" viewBox="0 0 572 572" fill="none" xmlns="http://www.w3.org/2000/svg">
<g clip-path="url(#clip0_38_9)">
<path fill-rule="evenodd" clip-rule="evenodd" d="M549.12 543.4H572V549.12H549.12V572H543.4V549.12H491.92V572H486.2V549.12H434.72V572H429V549.12H377.52V572H371.8V549.12H320.32V572H314.6V549.12H263.12V572H257.4V549.12H205.92V572H200.2V549.12H148.72V572H143V549.12H91.52V572H85.8V549.12H0V543.4H85.8V491.92H0V486.2H85.8V434.72H0V429H85.8V377.52H0V371.8H85.8V320.32H0V314.6H85.8V263.12H0V257.4H85.8V205.92H0V200.2H85.8V148.72H0V143H85.8V91.52H0V85.8H85.8V0H91.52V85.8H143V0H148.72V85.8H200.2V0H205.92V85.8H257.4V0H263.12V85.8H314.6V0H320.32V85.8H371.8V0H377.52V85.8H429V0H434.72V85.8H486.2V0H491.92V85.8H543.4V0H549.12V85.8H572V91.52H549.12V143H572V148.72H549.12V200.2H572V205.92H549.12V257.4H572V263.12H549.12V314.6H572V320.32H549.12V371.8H572V377.52H549.12V429H572V434.72H549.12V486.2H572V491.92H549.12V543.4ZM543.4 543.4V491.92H491.92V543.4H543.4ZM486.2 543.4V491.92H434.72V543.4H486.2ZM429 543.4V491.92H377.52V543.4H429ZM371.8 543.4V491.92H320.32V543.4H371.8ZM314.6 543.4V491.92H263.12V543.4H314.6ZM257.4 543.4V491.92H205.92V543.4H257.4ZM200.2 543.4V491.92H148.72V543.4H200.2ZM143 543.4V491.92H91.52V543.4H143ZM91.52 486.2H143V434.72H91.52V486.2ZM148.72 486.2H200.2V434.72H148.72V486.2ZM205.92 486.2H257.4V434.72H205.92V486.2ZM263.12 486.2H314.6V434.72H263.12V486.2ZM320.32 486.2H371.8V434.72H320.32V486.2ZM377.52 486.2H429V434.72H377.52V486.2ZM434.72 486.2H486.2V434.72H434.72V486.2ZM491.92 486.2H543.4V434.72H491.92V486.2ZM543.4 429V377.52H491.92V429H543.4ZM486.2 429V377.52H434.72V429H486.2ZM429 429V377.52H377.52V429H429ZM371.8 429V377.52H320.32V429H371.8ZM314.6 429V377.52H263.12V429H314.6ZM257.4 429V377.52H205.92V429H257.4ZM200.2 429V377.52H148.72V429H200.2ZM143 429V377.52H91.52V429H143ZM91.52 371.8H143V320.32H91.52V371.8ZM148.72 371.8H200.2V320.32H148.72V371.8ZM205.92 371.8H257.4V320.32H205.92V371.8ZM263.12 371.8H314.6V320.32H263.12V371.8ZM320.32 371.8H371.8V320.32H320.32V371.8ZM377.52 371.8H429V320.32H377.52V371.8ZM434.72 371.8H486.2V320.32H434.72V371.8ZM491.92 371.8H543.4V320.32H491.92V371.8ZM543.4 314.6V263.12H491.92V314.6H543.4ZM486.2 314.6V263.12H434.72V314.6H486.2ZM429 314.6V263.12H377.52V314.6H429ZM371.8 314.6V263.12H320.32V314.6H371.8ZM314.6 314.6V263.12H263.12V314.6H314.6ZM257.4 314.6V263.12H205.92V314.6H257.4ZM200.2 314.6V263.12H148.72V314.6H200.2ZM143 314.6V263.12H91.52V314.6H143ZM91.52 257.4H143V205.92H91.52V257.4ZM148.72 257.4H200.2V205.92H148.72V257.4ZM205.92 257.4H257.4V205.92H205.92V257.4ZM263.12 257.4H314.6V205.92H263.12V257.4ZM320.32 257.4H371.8V205.92H320.32V257.4ZM377.52 257.4H429V205.92H377.52V257.4ZM434.72 257.4H486.2V205.92H434.72V257.4ZM491.92 257.4H543.4V205.92H491.92V257.4ZM543.4 200.2V148.72H491.92V200.2H543.4ZM486.2 200.2V148.72H434.72V200.2H486.2ZM429 200.2V148.72H377.52V200.2H429ZM371.8 200.2V148.72H320.32V200.2H371.8ZM314.6 200.2V148.72H263.12V200.2H314.6ZM257.4 200.2V148.72H205.92V200.2H257.4ZM200.2 200.2V148.72H148.72V200.2H200.2ZM143 200.2V148.72H91.52V200.2H143ZM91.52 143H143V91.52H91.52V143ZM148.72 143H200.2V91.52H148.72V143ZM205.92 143H257.4V91.52H205.92V143ZM263.12 143H314.6V91.52H263.12V143ZM320.32 143H371.8V91.52H320.32V143ZM377.52 143H429V91.52H377.52V143ZM434.72 143H486.2V91.52H434.72V143ZM491.92 143H543.4V91.52H491.92V143Z" fill="url(#paint0_linear_38_9)"/>
<path fill-rule="evenodd" clip-rule="evenodd" d="M34.32 28.6V0H28.6V28.6H0V34.32H28.6V572H34.32V34.32H572V28.6H34.32Z" fill="url(#paint1_linear_38_9)"/>
</g>
<defs>
<linearGradient id="paint0_linear_38_9" x1="938" y1="-368" x2="99.5" y2="470.5" gradientUnits="userSpaceOnUse">
<stop stop-color="#4285F2"/>
<stop offset="0.713511" stop-color="#4285F2" stop-opacity="0.22"/>
<stop offset="0.753054" stop-color="#4285F2" stop-opacity="0.118679"/>
<stop offset="1" stop-color="#4285F2" stop-opacity="0"/>
</linearGradient>
<linearGradient id="paint1_linear_38_9" x1="938" y1="-368" x2="99.5" y2="470.5" gradientUnits="userSpaceOnUse">
<stop stop-color="#4285F2"/>
<stop offset="0.713511" stop-color="#4285F2" stop-opacity="0.22"/>
<stop offset="0.753054" stop-color="#4285F2" stop-opacity="0.118679"/>
<stop offset="1" stop-color="#4285F2" stop-opacity="0"/>
</linearGradient>
<clipPath id="clip0_38_9">
<rect width="572" height="572" fill="white"/>
</clipPath>
</defs>
</svg>
